G04 #@! TF.GenerationSoftware,KiCad,Pcbnew,(5.0.1)-3*
G04 #@! TF.CreationDate,2019-07-10T07:46:58-07:00*
G04 #@! TF.ProjectId,active_3attMix_v2,6163746976655F336174744D69785F76,V3*
G04 #@! TF.SameCoordinates,Original*
G04 #@! TF.FileFunction,Soldermask,Top*
G04 #@! TF.FilePolarity,Negative*
%FSLAX46Y46*%
G04 Gerber Fmt 4.6, Leading zero omitted, Abs format (unit mm)*
G04 Created by KiCad (PCBNEW (5.0.1)-3) date 7/10/2019 7:46:58 AM*
%MOMM*%
%LPD*%
G01*
G04 APERTURE LIST*
%ADD10C,0.300000*%
%ADD11C,0.150000*%
%ADD12C,0.100000*%
G04 APERTURE END LIST*
D10*
X199616642Y-189313357D02*
X199116642Y-189313357D01*
X199116642Y-190099071D02*
X199116642Y-188599071D01*
X199830928Y-188599071D01*
X201259500Y-190099071D02*
X200759500Y-189384785D01*
X200402357Y-190099071D02*
X200402357Y-188599071D01*
X200973785Y-188599071D01*
X201116642Y-188670500D01*
X201188071Y-188741928D01*
X201259500Y-188884785D01*
X201259500Y-189099071D01*
X201188071Y-189241928D01*
X201116642Y-189313357D01*
X200973785Y-189384785D01*
X200402357Y-189384785D01*
X202188071Y-188599071D02*
X202473785Y-188599071D01*
X202616642Y-188670500D01*
X202759500Y-188813357D01*
X202830928Y-189099071D01*
X202830928Y-189599071D01*
X202759500Y-189884785D01*
X202616642Y-190027642D01*
X202473785Y-190099071D01*
X202188071Y-190099071D01*
X202045214Y-190027642D01*
X201902357Y-189884785D01*
X201830928Y-189599071D01*
X201830928Y-189099071D01*
X201902357Y-188813357D01*
X202045214Y-188670500D01*
X202188071Y-188599071D01*
X203473785Y-190099071D02*
X203473785Y-188599071D01*
X204330928Y-190099071D01*
X204330928Y-188599071D01*
X204830928Y-188599071D02*
X205688071Y-188599071D01*
X205259500Y-190099071D02*
X205259500Y-188599071D01*
X207259500Y-190027642D02*
X207473785Y-190099071D01*
X207830928Y-190099071D01*
X207973785Y-190027642D01*
X208045214Y-189956214D01*
X208116642Y-189813357D01*
X208116642Y-189670500D01*
X208045214Y-189527642D01*
X207973785Y-189456214D01*
X207830928Y-189384785D01*
X207545214Y-189313357D01*
X207402357Y-189241928D01*
X207330928Y-189170500D01*
X207259500Y-189027642D01*
X207259500Y-188884785D01*
X207330928Y-188741928D01*
X207402357Y-188670500D01*
X207545214Y-188599071D01*
X207902357Y-188599071D01*
X208116642Y-188670500D01*
X209045214Y-188599071D02*
X209330928Y-188599071D01*
X209473785Y-188670500D01*
X209616642Y-188813357D01*
X209688071Y-189099071D01*
X209688071Y-189599071D01*
X209616642Y-189884785D01*
X209473785Y-190027642D01*
X209330928Y-190099071D01*
X209045214Y-190099071D01*
X208902357Y-190027642D01*
X208759500Y-189884785D01*
X208688071Y-189599071D01*
X208688071Y-189099071D01*
X208759500Y-188813357D01*
X208902357Y-188670500D01*
X209045214Y-188599071D01*
X211045214Y-190099071D02*
X210330928Y-190099071D01*
X210330928Y-188599071D01*
X211545214Y-190099071D02*
X211545214Y-188599071D01*
X211902357Y-188599071D01*
X212116642Y-188670500D01*
X212259500Y-188813357D01*
X212330928Y-188956214D01*
X212402357Y-189241928D01*
X212402357Y-189456214D01*
X212330928Y-189741928D01*
X212259500Y-189884785D01*
X212116642Y-190027642D01*
X211902357Y-190099071D01*
X211545214Y-190099071D01*
X213045214Y-189313357D02*
X213545214Y-189313357D01*
X213759500Y-190099071D02*
X213045214Y-190099071D01*
X213045214Y-188599071D01*
X213759500Y-188599071D01*
X215259500Y-190099071D02*
X214759500Y-189384785D01*
X214402357Y-190099071D02*
X214402357Y-188599071D01*
X214973785Y-188599071D01*
X215116642Y-188670500D01*
X215188071Y-188741928D01*
X215259500Y-188884785D01*
X215259500Y-189099071D01*
X215188071Y-189241928D01*
X215116642Y-189313357D01*
X214973785Y-189384785D01*
X214402357Y-189384785D01*
X215902357Y-190099071D02*
X215902357Y-188599071D01*
X216402357Y-189670500D01*
X216902357Y-188599071D01*
X216902357Y-190099071D01*
X217545214Y-189670500D02*
X218259500Y-189670500D01*
X217402357Y-190099071D02*
X217902357Y-188599071D01*
X218402357Y-190099071D01*
X218830928Y-190027642D02*
X219045214Y-190099071D01*
X219402357Y-190099071D01*
X219545214Y-190027642D01*
X219616642Y-189956214D01*
X219688071Y-189813357D01*
X219688071Y-189670500D01*
X219616642Y-189527642D01*
X219545214Y-189456214D01*
X219402357Y-189384785D01*
X219116642Y-189313357D01*
X218973785Y-189241928D01*
X218902357Y-189170500D01*
X218830928Y-189027642D01*
X218830928Y-188884785D01*
X218902357Y-188741928D01*
X218973785Y-188670500D01*
X219116642Y-188599071D01*
X219473785Y-188599071D01*
X219688071Y-188670500D01*
X220330928Y-190099071D02*
X220330928Y-188599071D01*
X221188071Y-190099071D02*
X220545214Y-189241928D01*
X221188071Y-188599071D02*
X220330928Y-189456214D01*
D11*
X98501100Y-119238600D02*
X198501100Y-119238600D01*
X198501100Y-119238600D02*
X198501100Y-90768600D01*
X198501100Y-90768600D02*
X98501100Y-90768600D01*
X98501100Y-90768600D02*
X98501100Y-119238600D01*
D12*
G36*
X141615639Y-117015916D02*
X141822986Y-117078815D01*
X141822988Y-117078816D01*
X142014084Y-117180958D01*
X142181581Y-117318419D01*
X142319042Y-117485916D01*
X142421184Y-117677012D01*
X142484084Y-117884362D01*
X142505322Y-118100000D01*
X142484084Y-118315638D01*
X142421184Y-118522988D01*
X142319042Y-118714084D01*
X142181581Y-118881581D01*
X142014084Y-119019042D01*
X141822988Y-119121184D01*
X141822986Y-119121185D01*
X141615639Y-119184084D01*
X141454038Y-119200000D01*
X140545962Y-119200000D01*
X140384361Y-119184084D01*
X140177014Y-119121185D01*
X140177012Y-119121184D01*
X139985916Y-119019042D01*
X139818419Y-118881581D01*
X139680958Y-118714084D01*
X139578816Y-118522988D01*
X139515916Y-118315638D01*
X139494678Y-118100000D01*
X139515916Y-117884362D01*
X139578816Y-117677012D01*
X139680958Y-117485916D01*
X139818419Y-117318419D01*
X139985916Y-117180958D01*
X140177012Y-117078816D01*
X140177014Y-117078815D01*
X140384361Y-117015916D01*
X140545962Y-117000000D01*
X141454038Y-117000000D01*
X141615639Y-117015916D01*
X141615639Y-117015916D01*
G37*
G36*
X168115639Y-117015916D02*
X168322986Y-117078815D01*
X168322988Y-117078816D01*
X168514084Y-117180958D01*
X168681581Y-117318419D01*
X168819042Y-117485916D01*
X168921184Y-117677012D01*
X168984084Y-117884362D01*
X169005322Y-118100000D01*
X168984084Y-118315638D01*
X168921184Y-118522988D01*
X168819042Y-118714084D01*
X168681581Y-118881581D01*
X168514084Y-119019042D01*
X168322988Y-119121184D01*
X168322986Y-119121185D01*
X168115639Y-119184084D01*
X167954038Y-119200000D01*
X167045962Y-119200000D01*
X166884361Y-119184084D01*
X166677014Y-119121185D01*
X166677012Y-119121184D01*
X166485916Y-119019042D01*
X166318419Y-118881581D01*
X166180958Y-118714084D01*
X166078816Y-118522988D01*
X166015916Y-118315638D01*
X165994678Y-118100000D01*
X166015916Y-117884362D01*
X166078816Y-117677012D01*
X166180958Y-117485916D01*
X166318419Y-117318419D01*
X166485916Y-117180958D01*
X166677012Y-117078816D01*
X166677014Y-117078815D01*
X166884361Y-117015916D01*
X167045962Y-117000000D01*
X167954038Y-117000000D01*
X168115639Y-117015916D01*
X168115639Y-117015916D01*
G37*
G36*
X190565639Y-117015916D02*
X190772986Y-117078815D01*
X190772988Y-117078816D01*
X190964084Y-117180958D01*
X191131581Y-117318419D01*
X191269042Y-117485916D01*
X191371184Y-117677012D01*
X191434084Y-117884362D01*
X191455322Y-118100000D01*
X191434084Y-118315638D01*
X191371184Y-118522988D01*
X191269042Y-118714084D01*
X191131581Y-118881581D01*
X190964084Y-119019042D01*
X190772988Y-119121184D01*
X190772986Y-119121185D01*
X190565639Y-119184084D01*
X190404038Y-119200000D01*
X189495962Y-119200000D01*
X189334361Y-119184084D01*
X189127014Y-119121185D01*
X189127012Y-119121184D01*
X188935916Y-119019042D01*
X188768419Y-118881581D01*
X188630958Y-118714084D01*
X188528816Y-118522988D01*
X188465916Y-118315638D01*
X188444678Y-118100000D01*
X188465916Y-117884362D01*
X188528816Y-117677012D01*
X188630958Y-117485916D01*
X188768419Y-117318419D01*
X188935916Y-117180958D01*
X189127012Y-117078816D01*
X189127014Y-117078815D01*
X189334361Y-117015916D01*
X189495962Y-117000000D01*
X190404038Y-117000000D01*
X190565639Y-117015916D01*
X190565639Y-117015916D01*
G37*
G36*
X115115639Y-117015916D02*
X115322986Y-117078815D01*
X115322988Y-117078816D01*
X115514084Y-117180958D01*
X115681581Y-117318419D01*
X115819042Y-117485916D01*
X115921184Y-117677012D01*
X115984084Y-117884362D01*
X116005322Y-118100000D01*
X115984084Y-118315638D01*
X115921184Y-118522988D01*
X115819042Y-118714084D01*
X115681581Y-118881581D01*
X115514084Y-119019042D01*
X115322988Y-119121184D01*
X115322986Y-119121185D01*
X115115639Y-119184084D01*
X114954038Y-119200000D01*
X114045962Y-119200000D01*
X113884361Y-119184084D01*
X113677014Y-119121185D01*
X113677012Y-119121184D01*
X113485916Y-119019042D01*
X113318419Y-118881581D01*
X113180958Y-118714084D01*
X113078816Y-118522988D01*
X113015916Y-118315638D01*
X112994678Y-118100000D01*
X113015916Y-117884362D01*
X113078816Y-117677012D01*
X113180958Y-117485916D01*
X113318419Y-117318419D01*
X113485916Y-117180958D01*
X113677012Y-117078816D01*
X113677014Y-117078815D01*
X113884361Y-117015916D01*
X114045962Y-117000000D01*
X114954038Y-117000000D01*
X115115639Y-117015916D01*
X115115639Y-117015916D01*
G37*
G36*
X197223663Y-115097854D02*
X197394405Y-115168578D01*
X197548068Y-115271252D01*
X197678748Y-115401932D01*
X197781422Y-115555595D01*
X197852146Y-115726337D01*
X197888200Y-115907595D01*
X197888200Y-116092405D01*
X197852146Y-116273663D01*
X197781422Y-116444405D01*
X197678748Y-116598068D01*
X197548068Y-116728748D01*
X197394405Y-116831422D01*
X197223663Y-116902146D01*
X197042405Y-116938200D01*
X196857595Y-116938200D01*
X196676337Y-116902146D01*
X196505595Y-116831422D01*
X196351932Y-116728748D01*
X196221252Y-116598068D01*
X196118578Y-116444405D01*
X196047854Y-116273663D01*
X196011800Y-116092405D01*
X196011800Y-115907595D01*
X196047854Y-115726337D01*
X196118578Y-115555595D01*
X196221252Y-115401932D01*
X196351932Y-115271252D01*
X196505595Y-115168578D01*
X196676337Y-115097854D01*
X196857595Y-115061800D01*
X197042405Y-115061800D01*
X197223663Y-115097854D01*
X197223663Y-115097854D01*
G37*
G36*
X174773663Y-115097854D02*
X174944405Y-115168578D01*
X175098068Y-115271252D01*
X175228748Y-115401932D01*
X175331422Y-115555595D01*
X175402146Y-115726337D01*
X175438200Y-115907595D01*
X175438200Y-116092405D01*
X175402146Y-116273663D01*
X175331422Y-116444405D01*
X175228748Y-116598068D01*
X175098068Y-116728748D01*
X174944405Y-116831422D01*
X174773663Y-116902146D01*
X174592405Y-116938200D01*
X174407595Y-116938200D01*
X174226337Y-116902146D01*
X174055595Y-116831422D01*
X173901932Y-116728748D01*
X173771252Y-116598068D01*
X173668578Y-116444405D01*
X173597854Y-116273663D01*
X173561800Y-116092405D01*
X173561800Y-115907595D01*
X173597854Y-115726337D01*
X173668578Y-115555595D01*
X173771252Y-115401932D01*
X173901932Y-115271252D01*
X174055595Y-115168578D01*
X174226337Y-115097854D01*
X174407595Y-115061800D01*
X174592405Y-115061800D01*
X174773663Y-115097854D01*
X174773663Y-115097854D01*
G37*
G36*
X148273663Y-115097854D02*
X148444405Y-115168578D01*
X148598068Y-115271252D01*
X148728748Y-115401932D01*
X148831422Y-115555595D01*
X148902146Y-115726337D01*
X148938200Y-115907595D01*
X148938200Y-116092405D01*
X148902146Y-116273663D01*
X148831422Y-116444405D01*
X148728748Y-116598068D01*
X148598068Y-116728748D01*
X148444405Y-116831422D01*
X148273663Y-116902146D01*
X148092405Y-116938200D01*
X147907595Y-116938200D01*
X147726337Y-116902146D01*
X147555595Y-116831422D01*
X147401932Y-116728748D01*
X147271252Y-116598068D01*
X147168578Y-116444405D01*
X147097854Y-116273663D01*
X147061800Y-116092405D01*
X147061800Y-115907595D01*
X147097854Y-115726337D01*
X147168578Y-115555595D01*
X147271252Y-115401932D01*
X147401932Y-115271252D01*
X147555595Y-115168578D01*
X147726337Y-115097854D01*
X147907595Y-115061800D01*
X148092405Y-115061800D01*
X148273663Y-115097854D01*
X148273663Y-115097854D01*
G37*
G36*
X121773663Y-115097854D02*
X121944405Y-115168578D01*
X122098068Y-115271252D01*
X122228748Y-115401932D01*
X122331422Y-115555595D01*
X122402146Y-115726337D01*
X122438200Y-115907595D01*
X122438200Y-116092405D01*
X122402146Y-116273663D01*
X122331422Y-116444405D01*
X122228748Y-116598068D01*
X122098068Y-116728748D01*
X121944405Y-116831422D01*
X121773663Y-116902146D01*
X121592405Y-116938200D01*
X121407595Y-116938200D01*
X121226337Y-116902146D01*
X121055595Y-116831422D01*
X120901932Y-116728748D01*
X120771252Y-116598068D01*
X120668578Y-116444405D01*
X120597854Y-116273663D01*
X120561800Y-116092405D01*
X120561800Y-115907595D01*
X120597854Y-115726337D01*
X120668578Y-115555595D01*
X120771252Y-115401932D01*
X120901932Y-115271252D01*
X121055595Y-115168578D01*
X121226337Y-115097854D01*
X121407595Y-115061800D01*
X121592405Y-115061800D01*
X121773663Y-115097854D01*
X121773663Y-115097854D01*
G37*
G36*
X126300000Y-115940000D02*
X124300000Y-115940000D01*
X124300000Y-113940000D01*
X126300000Y-113940000D01*
X126300000Y-115940000D01*
X126300000Y-115940000D01*
G37*
G36*
X179300000Y-115940000D02*
X177300000Y-115940000D01*
X177300000Y-113940000D01*
X179300000Y-113940000D01*
X179300000Y-115940000D01*
X179300000Y-115940000D01*
G37*
G36*
X152800000Y-115940000D02*
X150800000Y-115940000D01*
X150800000Y-113940000D01*
X152800000Y-113940000D01*
X152800000Y-115940000D01*
X152800000Y-115940000D01*
G37*
G36*
X103588900Y-113710342D02*
X103770536Y-113765442D01*
X103770538Y-113765443D01*
X103854238Y-113810181D01*
X103937940Y-113854921D01*
X104084665Y-113975335D01*
X104205079Y-114122060D01*
X104294558Y-114289464D01*
X104349658Y-114471100D01*
X104368262Y-114660000D01*
X104349658Y-114848900D01*
X104294558Y-115030536D01*
X104205079Y-115197940D01*
X104084665Y-115344665D01*
X103937940Y-115465079D01*
X103770536Y-115554558D01*
X103588900Y-115609658D01*
X103447338Y-115623600D01*
X103352662Y-115623600D01*
X103211100Y-115609658D01*
X103029464Y-115554558D01*
X102862060Y-115465079D01*
X102715335Y-115344665D01*
X102594921Y-115197940D01*
X102505442Y-115030536D01*
X102450342Y-114848900D01*
X102431738Y-114660000D01*
X102450342Y-114471100D01*
X102505442Y-114289464D01*
X102594921Y-114122060D01*
X102715335Y-113975335D01*
X102862060Y-113854921D01*
X102945762Y-113810181D01*
X103029462Y-113765443D01*
X103029464Y-113765442D01*
X103211100Y-113710342D01*
X103352662Y-113696400D01*
X103447338Y-113696400D01*
X103588900Y-113710342D01*
X103588900Y-113710342D01*
G37*
G36*
X101048900Y-113710342D02*
X101230536Y-113765442D01*
X101230538Y-113765443D01*
X101314238Y-113810181D01*
X101397940Y-113854921D01*
X101544665Y-113975335D01*
X101665079Y-114122060D01*
X101754558Y-114289464D01*
X101809658Y-114471100D01*
X101828262Y-114660000D01*
X101809658Y-114848900D01*
X101754558Y-115030536D01*
X101665079Y-115197940D01*
X101544665Y-115344665D01*
X101397940Y-115465079D01*
X101230536Y-115554558D01*
X101048900Y-115609658D01*
X100907338Y-115623600D01*
X100812662Y-115623600D01*
X100671100Y-115609658D01*
X100489464Y-115554558D01*
X100322060Y-115465079D01*
X100175335Y-115344665D01*
X100054921Y-115197940D01*
X99965442Y-115030536D01*
X99910342Y-114848900D01*
X99891738Y-114660000D01*
X99910342Y-114471100D01*
X99965442Y-114289464D01*
X100054921Y-114122060D01*
X100175335Y-113975335D01*
X100322060Y-113854921D01*
X100405762Y-113810181D01*
X100489462Y-113765443D01*
X100489464Y-113765442D01*
X100671100Y-113710342D01*
X100812662Y-113696400D01*
X100907338Y-113696400D01*
X101048900Y-113710342D01*
X101048900Y-113710342D01*
G37*
G36*
X174773663Y-112597854D02*
X174944405Y-112668578D01*
X175098068Y-112771252D01*
X175228748Y-112901932D01*
X175331422Y-113055595D01*
X175402146Y-113226337D01*
X175438200Y-113407595D01*
X175438200Y-113592405D01*
X175402146Y-113773663D01*
X175331422Y-113944405D01*
X175228748Y-114098068D01*
X175098068Y-114228748D01*
X174944405Y-114331422D01*
X174773663Y-114402146D01*
X174592405Y-114438200D01*
X174407595Y-114438200D01*
X174226337Y-114402146D01*
X174055595Y-114331422D01*
X173901932Y-114228748D01*
X173771252Y-114098068D01*
X173668578Y-113944405D01*
X173597854Y-113773663D01*
X173561800Y-113592405D01*
X173561800Y-113407595D01*
X173597854Y-113226337D01*
X173668578Y-113055595D01*
X173771252Y-112901932D01*
X173901932Y-112771252D01*
X174055595Y-112668578D01*
X174226337Y-112597854D01*
X174407595Y-112561800D01*
X174592405Y-112561800D01*
X174773663Y-112597854D01*
X174773663Y-112597854D01*
G37*
G36*
X121773663Y-112597854D02*
X121944405Y-112668578D01*
X122098068Y-112771252D01*
X122228748Y-112901932D01*
X122331422Y-113055595D01*
X122402146Y-113226337D01*
X122438200Y-113407595D01*
X122438200Y-113592405D01*
X122402146Y-113773663D01*
X122331422Y-113944405D01*
X122228748Y-114098068D01*
X122098068Y-114228748D01*
X121944405Y-114331422D01*
X121773663Y-114402146D01*
X121592405Y-114438200D01*
X121407595Y-114438200D01*
X121226337Y-114402146D01*
X121055595Y-114331422D01*
X120901932Y-114228748D01*
X120771252Y-114098068D01*
X120668578Y-113944405D01*
X120597854Y-113773663D01*
X120561800Y-113592405D01*
X120561800Y-113407595D01*
X120597854Y-113226337D01*
X120668578Y-113055595D01*
X120771252Y-112901932D01*
X120901932Y-112771252D01*
X121055595Y-112668578D01*
X121226337Y-112597854D01*
X121407595Y-112561800D01*
X121592405Y-112561800D01*
X121773663Y-112597854D01*
X121773663Y-112597854D01*
G37*
G36*
X148273663Y-112597854D02*
X148444405Y-112668578D01*
X148598068Y-112771252D01*
X148728748Y-112901932D01*
X148831422Y-113055595D01*
X148902146Y-113226337D01*
X148938200Y-113407595D01*
X148938200Y-113592405D01*
X148902146Y-113773663D01*
X148831422Y-113944405D01*
X148728748Y-114098068D01*
X148598068Y-114228748D01*
X148444405Y-114331422D01*
X148273663Y-114402146D01*
X148092405Y-114438200D01*
X147907595Y-114438200D01*
X147726337Y-114402146D01*
X147555595Y-114331422D01*
X147401932Y-114228748D01*
X147271252Y-114098068D01*
X147168578Y-113944405D01*
X147097854Y-113773663D01*
X147061800Y-113592405D01*
X147061800Y-113407595D01*
X147097854Y-113226337D01*
X147168578Y-113055595D01*
X147271252Y-112901932D01*
X147401932Y-112771252D01*
X147555595Y-112668578D01*
X147726337Y-112597854D01*
X147907595Y-112561800D01*
X148092405Y-112561800D01*
X148273663Y-112597854D01*
X148273663Y-112597854D01*
G37*
G36*
X197223663Y-112597854D02*
X197394405Y-112668578D01*
X197548068Y-112771252D01*
X197678748Y-112901932D01*
X197781422Y-113055595D01*
X197852146Y-113226337D01*
X197888200Y-113407595D01*
X197888200Y-113592405D01*
X197852146Y-113773663D01*
X197781422Y-113944405D01*
X197678748Y-114098068D01*
X197548068Y-114228748D01*
X197394405Y-114331422D01*
X197223663Y-114402146D01*
X197042405Y-114438200D01*
X196857595Y-114438200D01*
X196676337Y-114402146D01*
X196505595Y-114331422D01*
X196351932Y-114228748D01*
X196221252Y-114098068D01*
X196118578Y-113944405D01*
X196047854Y-113773663D01*
X196011800Y-113592405D01*
X196011800Y-113407595D01*
X196047854Y-113226337D01*
X196118578Y-113055595D01*
X196221252Y-112901932D01*
X196351932Y-112771252D01*
X196505595Y-112668578D01*
X196676337Y-112597854D01*
X196857595Y-112561800D01*
X197042405Y-112561800D01*
X197223663Y-112597854D01*
X197223663Y-112597854D01*
G37*
G36*
X151975770Y-111415372D02*
X152091689Y-111438429D01*
X152273678Y-111513811D01*
X152437463Y-111623249D01*
X152576751Y-111762537D01*
X152686189Y-111926322D01*
X152761571Y-112108311D01*
X152800000Y-112301509D01*
X152800000Y-112498491D01*
X152761571Y-112691689D01*
X152686189Y-112873678D01*
X152576751Y-113037463D01*
X152437463Y-113176751D01*
X152273678Y-113286189D01*
X152091689Y-113361571D01*
X151975770Y-113384628D01*
X151898493Y-113400000D01*
X151701507Y-113400000D01*
X151624230Y-113384628D01*
X151508311Y-113361571D01*
X151326322Y-113286189D01*
X151162537Y-113176751D01*
X151023249Y-113037463D01*
X150913811Y-112873678D01*
X150838429Y-112691689D01*
X150800000Y-112498491D01*
X150800000Y-112301509D01*
X150838429Y-112108311D01*
X150913811Y-111926322D01*
X151023249Y-111762537D01*
X151162537Y-111623249D01*
X151326322Y-111513811D01*
X151508311Y-111438429D01*
X151624230Y-111415372D01*
X151701507Y-111400000D01*
X151898493Y-111400000D01*
X151975770Y-111415372D01*
X151975770Y-111415372D01*
G37*
G36*
X178475770Y-111415372D02*
X178591689Y-111438429D01*
X178773678Y-111513811D01*
X178937463Y-111623249D01*
X179076751Y-111762537D01*
X179186189Y-111926322D01*
X179261571Y-112108311D01*
X179300000Y-112301509D01*
X179300000Y-112498491D01*
X179261571Y-112691689D01*
X179186189Y-112873678D01*
X179076751Y-113037463D01*
X178937463Y-113176751D01*
X178773678Y-113286189D01*
X178591689Y-113361571D01*
X178475770Y-113384628D01*
X178398493Y-113400000D01*
X178201507Y-113400000D01*
X178124230Y-113384628D01*
X178008311Y-113361571D01*
X177826322Y-113286189D01*
X177662537Y-113176751D01*
X177523249Y-113037463D01*
X177413811Y-112873678D01*
X177338429Y-112691689D01*
X177300000Y-112498491D01*
X177300000Y-112301509D01*
X177338429Y-112108311D01*
X177413811Y-111926322D01*
X177523249Y-111762537D01*
X177662537Y-111623249D01*
X177826322Y-111513811D01*
X178008311Y-111438429D01*
X178124230Y-111415372D01*
X178201507Y-111400000D01*
X178398493Y-111400000D01*
X178475770Y-111415372D01*
X178475770Y-111415372D01*
G37*
G36*
X125475770Y-111415372D02*
X125591689Y-111438429D01*
X125773678Y-111513811D01*
X125937463Y-111623249D01*
X126076751Y-111762537D01*
X126186189Y-111926322D01*
X126261571Y-112108311D01*
X126300000Y-112301509D01*
X126300000Y-112498491D01*
X126261571Y-112691689D01*
X126186189Y-112873678D01*
X126076751Y-113037463D01*
X125937463Y-113176751D01*
X125773678Y-113286189D01*
X125591689Y-113361571D01*
X125475770Y-113384628D01*
X125398493Y-113400000D01*
X125201507Y-113400000D01*
X125124230Y-113384628D01*
X125008311Y-113361571D01*
X124826322Y-113286189D01*
X124662537Y-113176751D01*
X124523249Y-113037463D01*
X124413811Y-112873678D01*
X124338429Y-112691689D01*
X124300000Y-112498491D01*
X124300000Y-112301509D01*
X124338429Y-112108311D01*
X124413811Y-111926322D01*
X124523249Y-111762537D01*
X124662537Y-111623249D01*
X124826322Y-111513811D01*
X125008311Y-111438429D01*
X125124230Y-111415372D01*
X125201507Y-111400000D01*
X125398493Y-111400000D01*
X125475770Y-111415372D01*
X125475770Y-111415372D01*
G37*
G36*
X103588900Y-111170342D02*
X103770536Y-111225442D01*
X103937940Y-111314921D01*
X104084665Y-111435335D01*
X104205079Y-111582060D01*
X104294558Y-111749464D01*
X104349658Y-111931100D01*
X104368262Y-112120000D01*
X104349658Y-112308900D01*
X104294558Y-112490536D01*
X104205079Y-112657940D01*
X104084665Y-112804665D01*
X103937940Y-112925079D01*
X103770536Y-113014558D01*
X103588900Y-113069658D01*
X103447338Y-113083600D01*
X103352662Y-113083600D01*
X103211100Y-113069658D01*
X103029464Y-113014558D01*
X102862060Y-112925079D01*
X102715335Y-112804665D01*
X102594921Y-112657940D01*
X102505442Y-112490536D01*
X102450342Y-112308900D01*
X102431738Y-112120000D01*
X102450342Y-111931100D01*
X102505442Y-111749464D01*
X102594921Y-111582060D01*
X102715335Y-111435335D01*
X102862060Y-111314921D01*
X103029464Y-111225442D01*
X103211100Y-111170342D01*
X103352662Y-111156400D01*
X103447338Y-111156400D01*
X103588900Y-111170342D01*
X103588900Y-111170342D01*
G37*
G36*
X101048900Y-111170342D02*
X101230536Y-111225442D01*
X101397940Y-111314921D01*
X101544665Y-111435335D01*
X101665079Y-111582060D01*
X101754558Y-111749464D01*
X101809658Y-111931100D01*
X101828262Y-112120000D01*
X101809658Y-112308900D01*
X101754558Y-112490536D01*
X101665079Y-112657940D01*
X101544665Y-112804665D01*
X101397940Y-112925079D01*
X101230536Y-113014558D01*
X101048900Y-113069658D01*
X100907338Y-113083600D01*
X100812662Y-113083600D01*
X100671100Y-113069658D01*
X100489464Y-113014558D01*
X100322060Y-112925079D01*
X100175335Y-112804665D01*
X100054921Y-112657940D01*
X99965442Y-112490536D01*
X99910342Y-112308900D01*
X99891738Y-112120000D01*
X99910342Y-111931100D01*
X99965442Y-111749464D01*
X100054921Y-111582060D01*
X100175335Y-111435335D01*
X100322060Y-111314921D01*
X100489464Y-111225442D01*
X100671100Y-111170342D01*
X100812662Y-111156400D01*
X100907338Y-111156400D01*
X101048900Y-111170342D01*
X101048900Y-111170342D01*
G37*
G36*
X174773663Y-110097854D02*
X174944405Y-110168578D01*
X175098068Y-110271252D01*
X175228748Y-110401932D01*
X175331422Y-110555595D01*
X175402146Y-110726337D01*
X175438200Y-110907595D01*
X175438200Y-111092405D01*
X175402146Y-111273663D01*
X175331422Y-111444405D01*
X175228748Y-111598068D01*
X175098068Y-111728748D01*
X174944405Y-111831422D01*
X174773663Y-111902146D01*
X174592405Y-111938200D01*
X174407595Y-111938200D01*
X174226337Y-111902146D01*
X174055595Y-111831422D01*
X173901932Y-111728748D01*
X173771252Y-111598068D01*
X173668578Y-111444405D01*
X173597854Y-111273663D01*
X173561800Y-111092405D01*
X173561800Y-110907595D01*
X173597854Y-110726337D01*
X173668578Y-110555595D01*
X173771252Y-110401932D01*
X173901932Y-110271252D01*
X174055595Y-110168578D01*
X174226337Y-110097854D01*
X174407595Y-110061800D01*
X174592405Y-110061800D01*
X174773663Y-110097854D01*
X174773663Y-110097854D01*
G37*
G36*
X148273663Y-110097854D02*
X148444405Y-110168578D01*
X148598068Y-110271252D01*
X148728748Y-110401932D01*
X148831422Y-110555595D01*
X148902146Y-110726337D01*
X148938200Y-110907595D01*
X148938200Y-111092405D01*
X148902146Y-111273663D01*
X148831422Y-111444405D01*
X148728748Y-111598068D01*
X148598068Y-111728748D01*
X148444405Y-111831422D01*
X148273663Y-111902146D01*
X148092405Y-111938200D01*
X147907595Y-111938200D01*
X147726337Y-111902146D01*
X147555595Y-111831422D01*
X147401932Y-111728748D01*
X147271252Y-111598068D01*
X147168578Y-111444405D01*
X147097854Y-111273663D01*
X147061800Y-111092405D01*
X147061800Y-110907595D01*
X147097854Y-110726337D01*
X147168578Y-110555595D01*
X147271252Y-110401932D01*
X147401932Y-110271252D01*
X147555595Y-110168578D01*
X147726337Y-110097854D01*
X147907595Y-110061800D01*
X148092405Y-110061800D01*
X148273663Y-110097854D01*
X148273663Y-110097854D01*
G37*
G36*
X121773663Y-110097854D02*
X121944405Y-110168578D01*
X122098068Y-110271252D01*
X122228748Y-110401932D01*
X122331422Y-110555595D01*
X122402146Y-110726337D01*
X122438200Y-110907595D01*
X122438200Y-111092405D01*
X122402146Y-111273663D01*
X122331422Y-111444405D01*
X122228748Y-111598068D01*
X122098068Y-111728748D01*
X121944405Y-111831422D01*
X121773663Y-111902146D01*
X121592405Y-111938200D01*
X121407595Y-111938200D01*
X121226337Y-111902146D01*
X121055595Y-111831422D01*
X120901932Y-111728748D01*
X120771252Y-111598068D01*
X120668578Y-111444405D01*
X120597854Y-111273663D01*
X120561800Y-111092405D01*
X120561800Y-110907595D01*
X120597854Y-110726337D01*
X120668578Y-110555595D01*
X120771252Y-110401932D01*
X120901932Y-110271252D01*
X121055595Y-110168578D01*
X121226337Y-110097854D01*
X121407595Y-110061800D01*
X121592405Y-110061800D01*
X121773663Y-110097854D01*
X121773663Y-110097854D01*
G37*
G36*
X197223663Y-110097854D02*
X197394405Y-110168578D01*
X197548068Y-110271252D01*
X197678748Y-110401932D01*
X197781422Y-110555595D01*
X197852146Y-110726337D01*
X197888200Y-110907595D01*
X197888200Y-111092405D01*
X197852146Y-111273663D01*
X197781422Y-111444405D01*
X197678748Y-111598068D01*
X197548068Y-111728748D01*
X197394405Y-111831422D01*
X197223663Y-111902146D01*
X197042405Y-111938200D01*
X196857595Y-111938200D01*
X196676337Y-111902146D01*
X196505595Y-111831422D01*
X196351932Y-111728748D01*
X196221252Y-111598068D01*
X196118578Y-111444405D01*
X196047854Y-111273663D01*
X196011800Y-111092405D01*
X196011800Y-110907595D01*
X196047854Y-110726337D01*
X196118578Y-110555595D01*
X196221252Y-110401932D01*
X196351932Y-110271252D01*
X196505595Y-110168578D01*
X196676337Y-110097854D01*
X196857595Y-110061800D01*
X197042405Y-110061800D01*
X197223663Y-110097854D01*
X197223663Y-110097854D01*
G37*
G36*
X161525000Y-110550000D02*
X160475000Y-110550000D01*
X160475000Y-109050000D01*
X161525000Y-109050000D01*
X161525000Y-110550000D01*
X161525000Y-110550000D01*
G37*
G36*
X159525000Y-110550000D02*
X158475000Y-110550000D01*
X158475000Y-109050000D01*
X159525000Y-109050000D01*
X159525000Y-110550000D01*
X159525000Y-110550000D01*
G37*
G36*
X101048900Y-108630342D02*
X101230536Y-108685442D01*
X101397940Y-108774921D01*
X101544665Y-108895335D01*
X101665079Y-109042060D01*
X101754558Y-109209464D01*
X101809658Y-109391100D01*
X101828262Y-109580000D01*
X101809658Y-109768900D01*
X101754558Y-109950536D01*
X101665079Y-110117940D01*
X101544665Y-110264665D01*
X101397940Y-110385079D01*
X101230536Y-110474558D01*
X101048900Y-110529658D01*
X100907338Y-110543600D01*
X100812662Y-110543600D01*
X100671100Y-110529658D01*
X100489464Y-110474558D01*
X100322060Y-110385079D01*
X100175335Y-110264665D01*
X100054921Y-110117940D01*
X99965442Y-109950536D01*
X99910342Y-109768900D01*
X99891738Y-109580000D01*
X99910342Y-109391100D01*
X99965442Y-109209464D01*
X100054921Y-109042060D01*
X100175335Y-108895335D01*
X100322060Y-108774921D01*
X100489464Y-108685442D01*
X100671100Y-108630342D01*
X100812662Y-108616400D01*
X100907338Y-108616400D01*
X101048900Y-108630342D01*
X101048900Y-108630342D01*
G37*
G36*
X103588900Y-108630342D02*
X103770536Y-108685442D01*
X103937940Y-108774921D01*
X104084665Y-108895335D01*
X104205079Y-109042060D01*
X104294558Y-109209464D01*
X104349658Y-109391100D01*
X104368262Y-109580000D01*
X104349658Y-109768900D01*
X104294558Y-109950536D01*
X104205079Y-110117940D01*
X104084665Y-110264665D01*
X103937940Y-110385079D01*
X103770536Y-110474558D01*
X103588900Y-110529658D01*
X103447338Y-110543600D01*
X103352662Y-110543600D01*
X103211100Y-110529658D01*
X103029464Y-110474558D01*
X102862060Y-110385079D01*
X102715335Y-110264665D01*
X102594921Y-110117940D01*
X102505442Y-109950536D01*
X102450342Y-109768900D01*
X102431738Y-109580000D01*
X102450342Y-109391100D01*
X102505442Y-109209464D01*
X102594921Y-109042060D01*
X102715335Y-108895335D01*
X102862060Y-108774921D01*
X103029464Y-108685442D01*
X103211100Y-108630342D01*
X103352662Y-108616400D01*
X103447338Y-108616400D01*
X103588900Y-108630342D01*
X103588900Y-108630342D01*
G37*
G36*
X124525000Y-110150000D02*
X123475000Y-110150000D01*
X123475000Y-108650000D01*
X124525000Y-108650000D01*
X124525000Y-110150000D01*
X124525000Y-110150000D01*
G37*
G36*
X126525000Y-110150000D02*
X125475000Y-110150000D01*
X125475000Y-108650000D01*
X126525000Y-108650000D01*
X126525000Y-110150000D01*
X126525000Y-110150000D01*
G37*
G36*
X191025000Y-107600000D02*
X190696538Y-107600000D01*
X190672152Y-107602402D01*
X190648703Y-107609515D01*
X190627092Y-107621066D01*
X190608150Y-107636612D01*
X190592604Y-107655554D01*
X190581053Y-107677165D01*
X190573940Y-107700614D01*
X190571538Y-107725000D01*
X190573940Y-107749386D01*
X190581053Y-107772835D01*
X190592604Y-107794446D01*
X190608150Y-107813388D01*
X190627092Y-107828934D01*
X190660252Y-107844617D01*
X190772986Y-107878815D01*
X190772988Y-107878816D01*
X190964084Y-107980958D01*
X191131581Y-108118419D01*
X191269042Y-108285916D01*
X191356746Y-108450000D01*
X191371185Y-108477014D01*
X191434084Y-108684361D01*
X191455322Y-108900000D01*
X191434084Y-109115639D01*
X191405623Y-109209462D01*
X191371184Y-109322988D01*
X191269042Y-109514084D01*
X191131581Y-109681581D01*
X190964084Y-109819042D01*
X190772988Y-109921184D01*
X190772986Y-109921185D01*
X190565639Y-109984084D01*
X190404038Y-110000000D01*
X189495962Y-110000000D01*
X189334361Y-109984084D01*
X189127014Y-109921185D01*
X189127012Y-109921184D01*
X188935916Y-109819042D01*
X188768419Y-109681581D01*
X188630958Y-109514084D01*
X188528816Y-109322988D01*
X188494378Y-109209462D01*
X188465916Y-109115639D01*
X188444678Y-108900000D01*
X188465916Y-108684361D01*
X188528815Y-108477014D01*
X188543254Y-108450000D01*
X188630958Y-108285916D01*
X188768419Y-108118419D01*
X188935916Y-107980958D01*
X189127012Y-107878816D01*
X189127014Y-107878815D01*
X189334361Y-107815916D01*
X189495962Y-107800000D01*
X189850000Y-107800000D01*
X189874386Y-107797598D01*
X189897835Y-107790485D01*
X189919446Y-107778934D01*
X189938388Y-107763388D01*
X189953934Y-107744446D01*
X189965485Y-107722835D01*
X189972598Y-107699386D01*
X189975000Y-107675000D01*
X189975000Y-106100000D01*
X191025000Y-106100000D01*
X191025000Y-107600000D01*
X191025000Y-107600000D01*
G37*
G36*
X168115639Y-107815916D02*
X168322986Y-107878815D01*
X168322988Y-107878816D01*
X168514084Y-107980958D01*
X168681581Y-108118419D01*
X168819042Y-108285916D01*
X168906746Y-108450000D01*
X168921185Y-108477014D01*
X168984084Y-108684361D01*
X169005322Y-108900000D01*
X168984084Y-109115639D01*
X168955623Y-109209462D01*
X168921184Y-109322988D01*
X168819042Y-109514084D01*
X168681581Y-109681581D01*
X168514084Y-109819042D01*
X168322988Y-109921184D01*
X168322986Y-109921185D01*
X168115639Y-109984084D01*
X167954038Y-110000000D01*
X167045962Y-110000000D01*
X166884361Y-109984084D01*
X166677014Y-109921185D01*
X166677012Y-109921184D01*
X166485916Y-109819042D01*
X166318419Y-109681581D01*
X166180958Y-109514084D01*
X166078816Y-109322988D01*
X166044378Y-109209462D01*
X166015916Y-109115639D01*
X165994678Y-108900000D01*
X166015916Y-108684361D01*
X166078815Y-108477014D01*
X166093254Y-108450000D01*
X166180958Y-108285916D01*
X166318419Y-108118419D01*
X166485916Y-107980958D01*
X166677012Y-107878816D01*
X166677014Y-107878815D01*
X166884361Y-107815916D01*
X167045962Y-107800000D01*
X167954038Y-107800000D01*
X168115639Y-107815916D01*
X168115639Y-107815916D01*
G37*
G36*
X115115639Y-107815916D02*
X115322986Y-107878815D01*
X115322988Y-107878816D01*
X115514084Y-107980958D01*
X115681581Y-108118419D01*
X115819042Y-108285916D01*
X115906746Y-108450000D01*
X115921185Y-108477014D01*
X115984084Y-108684361D01*
X116005322Y-108900000D01*
X115984084Y-109115639D01*
X115955623Y-109209462D01*
X115921184Y-109322988D01*
X115819042Y-109514084D01*
X115681581Y-109681581D01*
X115514084Y-109819042D01*
X115322988Y-109921184D01*
X115322986Y-109921185D01*
X115115639Y-109984084D01*
X114954038Y-110000000D01*
X114045962Y-110000000D01*
X113884361Y-109984084D01*
X113677014Y-109921185D01*
X113677012Y-109921184D01*
X113485916Y-109819042D01*
X113318419Y-109681581D01*
X113180958Y-109514084D01*
X113078816Y-109322988D01*
X113044378Y-109209462D01*
X113015916Y-109115639D01*
X112994678Y-108900000D01*
X113015916Y-108684361D01*
X113078815Y-108477014D01*
X113093254Y-108450000D01*
X113180958Y-108285916D01*
X113318419Y-108118419D01*
X113485916Y-107980958D01*
X113677012Y-107878816D01*
X113677014Y-107878815D01*
X113884361Y-107815916D01*
X114045962Y-107800000D01*
X114954038Y-107800000D01*
X115115639Y-107815916D01*
X115115639Y-107815916D01*
G37*
G36*
X141615639Y-107815916D02*
X141822986Y-107878815D01*
X141822988Y-107878816D01*
X142014084Y-107980958D01*
X142181581Y-108118419D01*
X142319042Y-108285916D01*
X142406746Y-108450000D01*
X142421185Y-108477014D01*
X142484084Y-108684361D01*
X142505322Y-108900000D01*
X142484084Y-109115639D01*
X142455623Y-109209462D01*
X142421184Y-109322988D01*
X142319042Y-109514084D01*
X142181581Y-109681581D01*
X142014084Y-109819042D01*
X141822988Y-109921184D01*
X141822986Y-109921185D01*
X141615639Y-109984084D01*
X141454038Y-110000000D01*
X140545962Y-110000000D01*
X140384361Y-109984084D01*
X140177014Y-109921185D01*
X140177012Y-109921184D01*
X139985916Y-109819042D01*
X139818419Y-109681581D01*
X139680958Y-109514084D01*
X139578816Y-109322988D01*
X139544378Y-109209462D01*
X139515916Y-109115639D01*
X139494678Y-108900000D01*
X139515916Y-108684361D01*
X139578815Y-108477014D01*
X139593254Y-108450000D01*
X139680958Y-108285916D01*
X139818419Y-108118419D01*
X139985916Y-107980958D01*
X140177012Y-107878816D01*
X140177014Y-107878815D01*
X140384361Y-107815916D01*
X140545962Y-107800000D01*
X141454038Y-107800000D01*
X141615639Y-107815916D01*
X141615639Y-107815916D01*
G37*
G36*
X151525000Y-109950000D02*
X150475000Y-109950000D01*
X150475000Y-108450000D01*
X151525000Y-108450000D01*
X151525000Y-109950000D01*
X151525000Y-109950000D01*
G37*
G36*
X153525000Y-109950000D02*
X152475000Y-109950000D01*
X152475000Y-108450000D01*
X153525000Y-108450000D01*
X153525000Y-109950000D01*
X153525000Y-109950000D01*
G37*
G36*
X112650000Y-108650000D02*
X111650000Y-108650000D01*
X111650000Y-106550000D01*
X112650000Y-106550000D01*
X112650000Y-108650000D01*
X112650000Y-108650000D01*
G37*
G36*
X129650000Y-108025000D02*
X128150000Y-108025000D01*
X128150000Y-106975000D01*
X129650000Y-106975000D01*
X129650000Y-108025000D01*
X129650000Y-108025000D01*
G37*
G36*
X103588900Y-106090342D02*
X103770536Y-106145442D01*
X103937940Y-106234921D01*
X104084665Y-106355335D01*
X104205079Y-106502060D01*
X104294558Y-106669464D01*
X104349658Y-106851100D01*
X104368262Y-107040000D01*
X104349658Y-107228900D01*
X104294558Y-107410536D01*
X104205079Y-107577940D01*
X104084665Y-107724665D01*
X103937940Y-107845079D01*
X103770536Y-107934558D01*
X103588900Y-107989658D01*
X103447338Y-108003600D01*
X103352662Y-108003600D01*
X103211100Y-107989658D01*
X103029464Y-107934558D01*
X102862060Y-107845079D01*
X102715335Y-107724665D01*
X102594921Y-107577940D01*
X102505442Y-107410536D01*
X102450342Y-107228900D01*
X102431738Y-107040000D01*
X102450342Y-106851100D01*
X102505442Y-106669464D01*
X102594921Y-106502060D01*
X102715335Y-106355335D01*
X102862060Y-106234921D01*
X103029464Y-106145442D01*
X103211100Y-106090342D01*
X103352662Y-106076400D01*
X103447338Y-106076400D01*
X103588900Y-106090342D01*
X103588900Y-106090342D01*
G37*
G36*
X101048900Y-106090342D02*
X101230536Y-106145442D01*
X101397940Y-106234921D01*
X101544665Y-106355335D01*
X101665079Y-106502060D01*
X101754558Y-106669464D01*
X101809658Y-106851100D01*
X101828262Y-107040000D01*
X101809658Y-107228900D01*
X101754558Y-107410536D01*
X101665079Y-107577940D01*
X101544665Y-107724665D01*
X101397940Y-107845079D01*
X101230536Y-107934558D01*
X101048900Y-107989658D01*
X100907338Y-108003600D01*
X100812662Y-108003600D01*
X100671100Y-107989658D01*
X100489464Y-107934558D01*
X100322060Y-107845079D01*
X100175335Y-107724665D01*
X100054921Y-107577940D01*
X99965442Y-107410536D01*
X99910342Y-107228900D01*
X99891738Y-107040000D01*
X99910342Y-106851100D01*
X99965442Y-106669464D01*
X100054921Y-106502060D01*
X100175335Y-106355335D01*
X100322060Y-106234921D01*
X100489464Y-106145442D01*
X100671100Y-106090342D01*
X100812662Y-106076400D01*
X100907338Y-106076400D01*
X101048900Y-106090342D01*
X101048900Y-106090342D01*
G37*
G36*
X164625000Y-108000000D02*
X163575000Y-108000000D01*
X163575000Y-106500000D01*
X164625000Y-106500000D01*
X164625000Y-108000000D01*
X164625000Y-108000000D01*
G37*
G36*
X162625000Y-108000000D02*
X161575000Y-108000000D01*
X161575000Y-106500000D01*
X162625000Y-106500000D01*
X162625000Y-108000000D01*
X162625000Y-108000000D01*
G37*
G36*
X127425000Y-108000000D02*
X125975000Y-108000000D01*
X125975000Y-106800000D01*
X127425000Y-106800000D01*
X127425000Y-108000000D01*
X127425000Y-108000000D01*
G37*
G36*
X193025000Y-107600000D02*
X191975000Y-107600000D01*
X191975000Y-106100000D01*
X193025000Y-106100000D01*
X193025000Y-107600000D01*
X193025000Y-107600000D01*
G37*
G36*
X160825000Y-107550000D02*
X159375000Y-107550000D01*
X159375000Y-106350000D01*
X160825000Y-106350000D01*
X160825000Y-107550000D01*
X160825000Y-107550000D01*
G37*
G36*
X189425000Y-107450000D02*
X187975000Y-107450000D01*
X187975000Y-106250000D01*
X189425000Y-106250000D01*
X189425000Y-107450000D01*
X189425000Y-107450000D01*
G37*
G36*
X181275000Y-107205000D02*
X179525000Y-107205000D01*
X179525000Y-106405000D01*
X181275000Y-106405000D01*
X181275000Y-107205000D01*
X181275000Y-107205000D01*
G37*
G36*
X186675000Y-107205000D02*
X184925000Y-107205000D01*
X184925000Y-106405000D01*
X186675000Y-106405000D01*
X186675000Y-107205000D01*
X186675000Y-107205000D01*
G37*
G36*
X152875000Y-107205000D02*
X151125000Y-107205000D01*
X151125000Y-106405000D01*
X152875000Y-106405000D01*
X152875000Y-107205000D01*
X152875000Y-107205000D01*
G37*
G36*
X124175000Y-107205000D02*
X122425000Y-107205000D01*
X122425000Y-106405000D01*
X124175000Y-106405000D01*
X124175000Y-107205000D01*
X124175000Y-107205000D01*
G37*
G36*
X118775000Y-107205000D02*
X117025000Y-107205000D01*
X117025000Y-106405000D01*
X118775000Y-106405000D01*
X118775000Y-107205000D01*
X118775000Y-107205000D01*
G37*
G36*
X158275000Y-107205000D02*
X156525000Y-107205000D01*
X156525000Y-106405000D01*
X158275000Y-106405000D01*
X158275000Y-107205000D01*
X158275000Y-107205000D01*
G37*
G36*
X147725000Y-106850000D02*
X146675000Y-106850000D01*
X146675000Y-105350000D01*
X147725000Y-105350000D01*
X147725000Y-106850000D01*
X147725000Y-106850000D01*
G37*
G36*
X145725000Y-106850000D02*
X144675000Y-106850000D01*
X144675000Y-105350000D01*
X145725000Y-105350000D01*
X145725000Y-106850000D01*
X145725000Y-106850000D01*
G37*
G36*
X149825000Y-106600000D02*
X148375000Y-106600000D01*
X148375000Y-105400000D01*
X149825000Y-105400000D01*
X149825000Y-106600000D01*
X149825000Y-106600000D01*
G37*
G36*
X178925000Y-106200000D02*
X177475000Y-106200000D01*
X177475000Y-105000000D01*
X178925000Y-105000000D01*
X178925000Y-106200000D01*
X178925000Y-106200000D01*
G37*
G36*
X176950000Y-106125000D02*
X175450000Y-106125000D01*
X175450000Y-105075000D01*
X176950000Y-105075000D01*
X176950000Y-106125000D01*
X176950000Y-106125000D01*
G37*
G36*
X129650000Y-106025000D02*
X128150000Y-106025000D01*
X128150000Y-104975000D01*
X129650000Y-104975000D01*
X129650000Y-106025000D01*
X129650000Y-106025000D01*
G37*
G36*
X127425000Y-106000000D02*
X125975000Y-106000000D01*
X125975000Y-104800000D01*
X127425000Y-104800000D01*
X127425000Y-106000000D01*
X127425000Y-106000000D01*
G37*
G36*
X158275000Y-105935000D02*
X156525000Y-105935000D01*
X156525000Y-105135000D01*
X158275000Y-105135000D01*
X158275000Y-105935000D01*
X158275000Y-105935000D01*
G37*
G36*
X186675000Y-105935000D02*
X184925000Y-105935000D01*
X184925000Y-105135000D01*
X186675000Y-105135000D01*
X186675000Y-105935000D01*
X186675000Y-105935000D01*
G37*
G36*
X181275000Y-105935000D02*
X179525000Y-105935000D01*
X179525000Y-105135000D01*
X181275000Y-105135000D01*
X181275000Y-105935000D01*
X181275000Y-105935000D01*
G37*
G36*
X152875000Y-105935000D02*
X151125000Y-105935000D01*
X151125000Y-105135000D01*
X152875000Y-105135000D01*
X152875000Y-105935000D01*
X152875000Y-105935000D01*
G37*
G36*
X118775000Y-105935000D02*
X117025000Y-105935000D01*
X117025000Y-105135000D01*
X118775000Y-105135000D01*
X118775000Y-105935000D01*
X118775000Y-105935000D01*
G37*
G36*
X124175000Y-105935000D02*
X122425000Y-105935000D01*
X122425000Y-105135000D01*
X124175000Y-105135000D01*
X124175000Y-105935000D01*
X124175000Y-105935000D01*
G37*
G36*
X162625000Y-105700000D02*
X161575000Y-105700000D01*
X161575000Y-104200000D01*
X162625000Y-104200000D01*
X162625000Y-105700000D01*
X162625000Y-105700000D01*
G37*
G36*
X164625000Y-105700000D02*
X163575000Y-105700000D01*
X163575000Y-104200000D01*
X164625000Y-104200000D01*
X164625000Y-105700000D01*
X164625000Y-105700000D01*
G37*
G36*
X113750000Y-103325000D02*
X113725000Y-103325000D01*
X113700614Y-103327402D01*
X113677165Y-103334515D01*
X113655554Y-103346066D01*
X113636612Y-103361612D01*
X113621066Y-103380554D01*
X113609515Y-103402165D01*
X113602402Y-103425614D01*
X113600000Y-103450000D01*
X113600000Y-105650000D01*
X112600000Y-105650000D01*
X112600000Y-103450000D01*
X112597598Y-103425614D01*
X112590485Y-103402165D01*
X112578934Y-103380554D01*
X112563388Y-103361612D01*
X112550000Y-103350624D01*
X112550000Y-101875000D01*
X113750000Y-101875000D01*
X113750000Y-103325000D01*
X113750000Y-103325000D01*
G37*
G36*
X111750000Y-103350624D02*
X111736612Y-103361612D01*
X111721066Y-103380554D01*
X111709515Y-103402165D01*
X111702402Y-103425614D01*
X111700000Y-103450000D01*
X111700000Y-105650000D01*
X110700000Y-105650000D01*
X110700000Y-103450000D01*
X110697598Y-103425614D01*
X110690485Y-103402165D01*
X110678934Y-103380554D01*
X110663388Y-103361612D01*
X110644446Y-103346066D01*
X110622835Y-103334515D01*
X110599386Y-103327402D01*
X110575000Y-103325000D01*
X110550000Y-103325000D01*
X110550000Y-101875000D01*
X111750000Y-101875000D01*
X111750000Y-103350624D01*
X111750000Y-103350624D01*
G37*
G36*
X193025000Y-105600000D02*
X191975000Y-105600000D01*
X191975000Y-104100000D01*
X193025000Y-104100000D01*
X193025000Y-105600000D01*
X193025000Y-105600000D01*
G37*
G36*
X191025000Y-105600000D02*
X189975000Y-105600000D01*
X189975000Y-104100000D01*
X191025000Y-104100000D01*
X191025000Y-105600000D01*
X191025000Y-105600000D01*
G37*
G36*
X160825000Y-105550000D02*
X159375000Y-105550000D01*
X159375000Y-104350000D01*
X160825000Y-104350000D01*
X160825000Y-105550000D01*
X160825000Y-105550000D01*
G37*
G36*
X116250000Y-105525000D02*
X114750000Y-105525000D01*
X114750000Y-104475000D01*
X116250000Y-104475000D01*
X116250000Y-105525000D01*
X116250000Y-105525000D01*
G37*
G36*
X104363600Y-105463600D02*
X102436400Y-105463600D01*
X102436400Y-103536400D01*
X104363600Y-103536400D01*
X104363600Y-105463600D01*
X104363600Y-105463600D01*
G37*
G36*
X101048900Y-103550342D02*
X101230536Y-103605442D01*
X101397940Y-103694921D01*
X101544665Y-103815335D01*
X101665079Y-103962060D01*
X101754558Y-104129464D01*
X101809658Y-104311100D01*
X101828262Y-104500000D01*
X101809658Y-104688900D01*
X101754558Y-104870536D01*
X101665079Y-105037940D01*
X101544665Y-105184665D01*
X101397940Y-105305079D01*
X101230536Y-105394558D01*
X101048900Y-105449658D01*
X100907338Y-105463600D01*
X100812662Y-105463600D01*
X100671100Y-105449658D01*
X100489464Y-105394558D01*
X100322060Y-105305079D01*
X100175335Y-105184665D01*
X100054921Y-105037940D01*
X99965442Y-104870536D01*
X99910342Y-104688900D01*
X99891738Y-104500000D01*
X99910342Y-104311100D01*
X99965442Y-104129464D01*
X100054921Y-103962060D01*
X100175335Y-103815335D01*
X100322060Y-103694921D01*
X100489464Y-103605442D01*
X100671100Y-103550342D01*
X100812662Y-103536400D01*
X100907338Y-103536400D01*
X101048900Y-103550342D01*
X101048900Y-103550342D01*
G37*
G36*
X189425000Y-105450000D02*
X187975000Y-105450000D01*
X187975000Y-104250000D01*
X189425000Y-104250000D01*
X189425000Y-105450000D01*
X189425000Y-105450000D01*
G37*
G36*
X147725000Y-104750000D02*
X146675000Y-104750000D01*
X146675000Y-103250000D01*
X147725000Y-103250000D01*
X147725000Y-104750000D01*
X147725000Y-104750000D01*
G37*
G36*
X145725000Y-104750000D02*
X144675000Y-104750000D01*
X144675000Y-103250000D01*
X145725000Y-103250000D01*
X145725000Y-104750000D01*
X145725000Y-104750000D01*
G37*
G36*
X124175000Y-104665000D02*
X122425000Y-104665000D01*
X122425000Y-103865000D01*
X124175000Y-103865000D01*
X124175000Y-104665000D01*
X124175000Y-104665000D01*
G37*
G36*
X181275000Y-104665000D02*
X179525000Y-104665000D01*
X179525000Y-103865000D01*
X181275000Y-103865000D01*
X181275000Y-104665000D01*
X181275000Y-104665000D01*
G37*
G36*
X186675000Y-104665000D02*
X184925000Y-104665000D01*
X184925000Y-103865000D01*
X186675000Y-103865000D01*
X186675000Y-104665000D01*
X186675000Y-104665000D01*
G37*
G36*
X152875000Y-104665000D02*
X151125000Y-104665000D01*
X151125000Y-103865000D01*
X152875000Y-103865000D01*
X152875000Y-104665000D01*
X152875000Y-104665000D01*
G37*
G36*
X118775000Y-104665000D02*
X117025000Y-104665000D01*
X117025000Y-103865000D01*
X118775000Y-103865000D01*
X118775000Y-104665000D01*
X118775000Y-104665000D01*
G37*
G36*
X158275000Y-104665000D02*
X156525000Y-104665000D01*
X156525000Y-103865000D01*
X158275000Y-103865000D01*
X158275000Y-104665000D01*
X158275000Y-104665000D01*
G37*
G36*
X149825000Y-104600000D02*
X148375000Y-104600000D01*
X148375000Y-103400000D01*
X149825000Y-103400000D01*
X149825000Y-104600000D01*
X149825000Y-104600000D01*
G37*
G36*
X196525000Y-104300000D02*
X195475000Y-104300000D01*
X195475000Y-102800000D01*
X196525000Y-102800000D01*
X196525000Y-104300000D01*
X196525000Y-104300000D01*
G37*
G36*
X194525000Y-104300000D02*
X193475000Y-104300000D01*
X193475000Y-102800000D01*
X194525000Y-102800000D01*
X194525000Y-104300000D01*
X194525000Y-104300000D01*
G37*
G36*
X178925000Y-104200000D02*
X177475000Y-104200000D01*
X177475000Y-103000000D01*
X178925000Y-103000000D01*
X178925000Y-104200000D01*
X178925000Y-104200000D01*
G37*
G36*
X129325000Y-104150000D02*
X128275000Y-104150000D01*
X128275000Y-102650000D01*
X129325000Y-102650000D01*
X129325000Y-104150000D01*
X129325000Y-104150000D01*
G37*
G36*
X127325000Y-104150000D02*
X126275000Y-104150000D01*
X126275000Y-102650000D01*
X127325000Y-102650000D01*
X127325000Y-104150000D01*
X127325000Y-104150000D01*
G37*
G36*
X176950000Y-104125000D02*
X175450000Y-104125000D01*
X175450000Y-103075000D01*
X176950000Y-103075000D01*
X176950000Y-104125000D01*
X176950000Y-104125000D01*
G37*
G36*
X116250000Y-103525000D02*
X114750000Y-103525000D01*
X114750000Y-102475000D01*
X116250000Y-102475000D01*
X116250000Y-103525000D01*
X116250000Y-103525000D01*
G37*
G36*
X118775000Y-103395000D02*
X117025000Y-103395000D01*
X117025000Y-102595000D01*
X118775000Y-102595000D01*
X118775000Y-103395000D01*
X118775000Y-103395000D01*
G37*
G36*
X124175000Y-103395000D02*
X122425000Y-103395000D01*
X122425000Y-102595000D01*
X124175000Y-102595000D01*
X124175000Y-103395000D01*
X124175000Y-103395000D01*
G37*
G36*
X158275000Y-103395000D02*
X156525000Y-103395000D01*
X156525000Y-102595000D01*
X158275000Y-102595000D01*
X158275000Y-103395000D01*
X158275000Y-103395000D01*
G37*
G36*
X152875000Y-103395000D02*
X151125000Y-103395000D01*
X151125000Y-102595000D01*
X152875000Y-102595000D01*
X152875000Y-103395000D01*
X152875000Y-103395000D01*
G37*
G36*
X186675000Y-103395000D02*
X184925000Y-103395000D01*
X184925000Y-102595000D01*
X186675000Y-102595000D01*
X186675000Y-103395000D01*
X186675000Y-103395000D01*
G37*
G36*
X181275000Y-103395000D02*
X179525000Y-103395000D01*
X179525000Y-102595000D01*
X181275000Y-102595000D01*
X181275000Y-103395000D01*
X181275000Y-103395000D01*
G37*
G36*
X192025000Y-103000000D02*
X190975000Y-103000000D01*
X190975000Y-101500000D01*
X192025000Y-101500000D01*
X192025000Y-103000000D01*
X192025000Y-103000000D01*
G37*
G36*
X190025000Y-103000000D02*
X188975000Y-103000000D01*
X188975000Y-101500000D01*
X190025000Y-101500000D01*
X190025000Y-103000000D01*
X190025000Y-103000000D01*
G37*
G36*
X177225000Y-102400000D02*
X176175000Y-102400000D01*
X176175000Y-100900000D01*
X177225000Y-100900000D01*
X177225000Y-102400000D01*
X177225000Y-102400000D01*
G37*
G36*
X179225000Y-102400000D02*
X178175000Y-102400000D01*
X178175000Y-100900000D01*
X179225000Y-100900000D01*
X179225000Y-102400000D01*
X179225000Y-102400000D01*
G37*
G36*
X184575000Y-101800000D02*
X183525000Y-101800000D01*
X183525000Y-100300000D01*
X184575000Y-100300000D01*
X184575000Y-101800000D01*
X184575000Y-101800000D01*
G37*
G36*
X182575000Y-101800000D02*
X181525000Y-101800000D01*
X181525000Y-100300000D01*
X182575000Y-100300000D01*
X182575000Y-101800000D01*
X182575000Y-101800000D01*
G37*
G36*
X182150000Y-99775000D02*
X180650000Y-99775000D01*
X180650000Y-98725000D01*
X182150000Y-98725000D01*
X182150000Y-99775000D01*
X182150000Y-99775000D01*
G37*
G36*
X184250000Y-99775000D02*
X182750000Y-99775000D01*
X182750000Y-98725000D01*
X184250000Y-98725000D01*
X184250000Y-99775000D01*
X184250000Y-99775000D01*
G37*
G36*
X182150000Y-97775000D02*
X180650000Y-97775000D01*
X180650000Y-96725000D01*
X182150000Y-96725000D01*
X182150000Y-97775000D01*
X182150000Y-97775000D01*
G37*
G36*
X184250000Y-97775000D02*
X182750000Y-97775000D01*
X182750000Y-96725000D01*
X184250000Y-96725000D01*
X184250000Y-97775000D01*
X184250000Y-97775000D01*
G37*
G36*
X114879196Y-94749958D02*
X115115780Y-94847954D01*
X115328705Y-94990226D01*
X115509774Y-95171295D01*
X115652046Y-95384220D01*
X115750042Y-95620804D01*
X115800000Y-95871960D01*
X115800000Y-96128040D01*
X115750042Y-96379196D01*
X115652046Y-96615780D01*
X115509774Y-96828705D01*
X115328705Y-97009774D01*
X115115780Y-97152046D01*
X114879196Y-97250042D01*
X114628040Y-97300000D01*
X114371960Y-97300000D01*
X114120804Y-97250042D01*
X113884220Y-97152046D01*
X113671295Y-97009774D01*
X113490226Y-96828705D01*
X113347954Y-96615780D01*
X113249958Y-96379196D01*
X113200000Y-96128040D01*
X113200000Y-95871960D01*
X113249958Y-95620804D01*
X113347954Y-95384220D01*
X113490226Y-95171295D01*
X113671295Y-94990226D01*
X113884220Y-94847954D01*
X114120804Y-94749958D01*
X114371960Y-94700000D01*
X114628040Y-94700000D01*
X114879196Y-94749958D01*
X114879196Y-94749958D01*
G37*
G36*
X141379196Y-94749958D02*
X141615780Y-94847954D01*
X141828705Y-94990226D01*
X142009774Y-95171295D01*
X142152046Y-95384220D01*
X142250042Y-95620804D01*
X142300000Y-95871960D01*
X142300000Y-96128040D01*
X142250042Y-96379196D01*
X142152046Y-96615780D01*
X142009774Y-96828705D01*
X141828705Y-97009774D01*
X141615780Y-97152046D01*
X141379196Y-97250042D01*
X141128040Y-97300000D01*
X140871960Y-97300000D01*
X140620804Y-97250042D01*
X140384220Y-97152046D01*
X140171295Y-97009774D01*
X139990226Y-96828705D01*
X139847954Y-96615780D01*
X139749958Y-96379196D01*
X139700000Y-96128040D01*
X139700000Y-95871960D01*
X139749958Y-95620804D01*
X139847954Y-95384220D01*
X139990226Y-95171295D01*
X140171295Y-94990226D01*
X140384220Y-94847954D01*
X140620804Y-94749958D01*
X140871960Y-94700000D01*
X141128040Y-94700000D01*
X141379196Y-94749958D01*
X141379196Y-94749958D01*
G37*
G36*
X186729196Y-94749958D02*
X186965780Y-94847954D01*
X187178705Y-94990226D01*
X187359774Y-95171295D01*
X187502046Y-95384220D01*
X187600042Y-95620804D01*
X187650000Y-95871960D01*
X187650000Y-96128040D01*
X187600042Y-96379196D01*
X187502046Y-96615780D01*
X187359774Y-96828705D01*
X187178705Y-97009774D01*
X186965780Y-97152046D01*
X186729196Y-97250042D01*
X186478040Y-97300000D01*
X186221960Y-97300000D01*
X185970804Y-97250042D01*
X185734220Y-97152046D01*
X185521295Y-97009774D01*
X185340226Y-96828705D01*
X185197954Y-96615780D01*
X185099958Y-96379196D01*
X185050000Y-96128040D01*
X185050000Y-95871960D01*
X185099958Y-95620804D01*
X185197954Y-95384220D01*
X185340226Y-95171295D01*
X185521295Y-94990226D01*
X185734220Y-94847954D01*
X185970804Y-94749958D01*
X186221960Y-94700000D01*
X186478040Y-94700000D01*
X186729196Y-94749958D01*
X186729196Y-94749958D01*
G37*
G36*
X167879196Y-94749958D02*
X168115780Y-94847954D01*
X168328705Y-94990226D01*
X168509774Y-95171295D01*
X168652046Y-95384220D01*
X168750042Y-95620804D01*
X168800000Y-95871960D01*
X168800000Y-96128040D01*
X168750042Y-96379196D01*
X168652046Y-96615780D01*
X168509774Y-96828705D01*
X168328705Y-97009774D01*
X168115780Y-97152046D01*
X167879196Y-97250042D01*
X167628040Y-97300000D01*
X167371960Y-97300000D01*
X167120804Y-97250042D01*
X166884220Y-97152046D01*
X166671295Y-97009774D01*
X166490226Y-96828705D01*
X166347954Y-96615780D01*
X166249958Y-96379196D01*
X166200000Y-96128040D01*
X166200000Y-95871960D01*
X166249958Y-95620804D01*
X166347954Y-95384220D01*
X166490226Y-95171295D01*
X166671295Y-94990226D01*
X166884220Y-94847954D01*
X167120804Y-94749958D01*
X167371960Y-94700000D01*
X167628040Y-94700000D01*
X167879196Y-94749958D01*
X167879196Y-94749958D01*
G37*
G36*
X103868481Y-95049007D02*
X104048468Y-95123560D01*
X104210451Y-95231794D01*
X104348206Y-95369549D01*
X104456440Y-95531532D01*
X104530993Y-95711519D01*
X104569000Y-95902592D01*
X104569000Y-96097408D01*
X104530993Y-96288481D01*
X104456440Y-96468468D01*
X104348206Y-96630451D01*
X104210451Y-96768206D01*
X104048468Y-96876440D01*
X103868481Y-96950993D01*
X103677408Y-96989000D01*
X103482592Y-96989000D01*
X103291519Y-96950993D01*
X103111532Y-96876440D01*
X102949549Y-96768206D01*
X102811794Y-96630451D01*
X102703560Y-96468468D01*
X102629007Y-96288481D01*
X102591000Y-96097408D01*
X102591000Y-95902592D01*
X102629007Y-95711519D01*
X102703560Y-95531532D01*
X102811794Y-95369549D01*
X102949549Y-95231794D01*
X103111532Y-95123560D01*
X103291519Y-95049007D01*
X103482592Y-95011000D01*
X103677408Y-95011000D01*
X103868481Y-95049007D01*
X103868481Y-95049007D01*
G37*
G36*
X112168481Y-95049007D02*
X112348468Y-95123560D01*
X112510451Y-95231794D01*
X112648206Y-95369549D01*
X112756440Y-95531532D01*
X112830993Y-95711519D01*
X112869000Y-95902592D01*
X112869000Y-96097408D01*
X112830993Y-96288481D01*
X112756440Y-96468468D01*
X112648206Y-96630451D01*
X112510451Y-96768206D01*
X112348468Y-96876440D01*
X112168481Y-96950993D01*
X111977408Y-96989000D01*
X111782592Y-96989000D01*
X111591519Y-96950993D01*
X111411532Y-96876440D01*
X111249549Y-96768206D01*
X111111794Y-96630451D01*
X111003560Y-96468468D01*
X110929007Y-96288481D01*
X110891000Y-96097408D01*
X110891000Y-95902592D01*
X110929007Y-95711519D01*
X111003560Y-95531532D01*
X111111794Y-95369549D01*
X111249549Y-95231794D01*
X111411532Y-95123560D01*
X111591519Y-95049007D01*
X111782592Y-95011000D01*
X111977408Y-95011000D01*
X112168481Y-95049007D01*
X112168481Y-95049007D01*
G37*
G36*
X117408481Y-95049007D02*
X117588468Y-95123560D01*
X117750451Y-95231794D01*
X117888206Y-95369549D01*
X117996440Y-95531532D01*
X118070993Y-95711519D01*
X118109000Y-95902592D01*
X118109000Y-96097408D01*
X118070993Y-96288481D01*
X117996440Y-96468468D01*
X117888206Y-96630451D01*
X117750451Y-96768206D01*
X117588468Y-96876440D01*
X117408481Y-96950993D01*
X117217408Y-96989000D01*
X117022592Y-96989000D01*
X116831519Y-96950993D01*
X116651532Y-96876440D01*
X116489549Y-96768206D01*
X116351794Y-96630451D01*
X116243560Y-96468468D01*
X116169007Y-96288481D01*
X116131000Y-96097408D01*
X116131000Y-95902592D01*
X116169007Y-95711519D01*
X116243560Y-95531532D01*
X116351794Y-95369549D01*
X116489549Y-95231794D01*
X116651532Y-95123560D01*
X116831519Y-95049007D01*
X117022592Y-95011000D01*
X117217408Y-95011000D01*
X117408481Y-95049007D01*
X117408481Y-95049007D01*
G37*
G36*
X189258481Y-95049007D02*
X189438468Y-95123560D01*
X189600451Y-95231794D01*
X189738206Y-95369549D01*
X189846440Y-95531532D01*
X189920993Y-95711519D01*
X189959000Y-95902592D01*
X189959000Y-96097408D01*
X189920993Y-96288481D01*
X189846440Y-96468468D01*
X189738206Y-96630451D01*
X189600451Y-96768206D01*
X189438468Y-96876440D01*
X189258481Y-96950993D01*
X189067408Y-96989000D01*
X188872592Y-96989000D01*
X188681519Y-96950993D01*
X188501532Y-96876440D01*
X188339549Y-96768206D01*
X188201794Y-96630451D01*
X188093560Y-96468468D01*
X188019007Y-96288481D01*
X187981000Y-96097408D01*
X187981000Y-95902592D01*
X188019007Y-95711519D01*
X188093560Y-95531532D01*
X188201794Y-95369549D01*
X188339549Y-95231794D01*
X188501532Y-95123560D01*
X188681519Y-95049007D01*
X188872592Y-95011000D01*
X189067408Y-95011000D01*
X189258481Y-95049007D01*
X189258481Y-95049007D01*
G37*
G36*
X178708481Y-95049007D02*
X178888468Y-95123560D01*
X179050451Y-95231794D01*
X179188206Y-95369549D01*
X179296440Y-95531532D01*
X179370993Y-95711519D01*
X179409000Y-95902592D01*
X179409000Y-96097408D01*
X179370993Y-96288481D01*
X179296440Y-96468468D01*
X179188206Y-96630451D01*
X179050451Y-96768206D01*
X178888468Y-96876440D01*
X178708481Y-96950993D01*
X178517408Y-96989000D01*
X178322592Y-96989000D01*
X178131519Y-96950993D01*
X177951532Y-96876440D01*
X177789549Y-96768206D01*
X177651794Y-96630451D01*
X177543560Y-96468468D01*
X177469007Y-96288481D01*
X177431000Y-96097408D01*
X177431000Y-95902592D01*
X177469007Y-95711519D01*
X177543560Y-95531532D01*
X177651794Y-95369549D01*
X177789549Y-95231794D01*
X177951532Y-95123560D01*
X178131519Y-95049007D01*
X178322592Y-95011000D01*
X178517408Y-95011000D01*
X178708481Y-95049007D01*
X178708481Y-95049007D01*
G37*
G36*
X170408481Y-95049007D02*
X170588468Y-95123560D01*
X170750451Y-95231794D01*
X170888206Y-95369549D01*
X170996440Y-95531532D01*
X171070993Y-95711519D01*
X171109000Y-95902592D01*
X171109000Y-96097408D01*
X171070993Y-96288481D01*
X170996440Y-96468468D01*
X170888206Y-96630451D01*
X170750451Y-96768206D01*
X170588468Y-96876440D01*
X170408481Y-96950993D01*
X170217408Y-96989000D01*
X170022592Y-96989000D01*
X169831519Y-96950993D01*
X169651532Y-96876440D01*
X169489549Y-96768206D01*
X169351794Y-96630451D01*
X169243560Y-96468468D01*
X169169007Y-96288481D01*
X169131000Y-96097408D01*
X169131000Y-95902592D01*
X169169007Y-95711519D01*
X169243560Y-95531532D01*
X169351794Y-95369549D01*
X169489549Y-95231794D01*
X169651532Y-95123560D01*
X169831519Y-95049007D01*
X170022592Y-95011000D01*
X170217408Y-95011000D01*
X170408481Y-95049007D01*
X170408481Y-95049007D01*
G37*
G36*
X165168481Y-95049007D02*
X165348468Y-95123560D01*
X165510451Y-95231794D01*
X165648206Y-95369549D01*
X165756440Y-95531532D01*
X165830993Y-95711519D01*
X165869000Y-95902592D01*
X165869000Y-96097408D01*
X165830993Y-96288481D01*
X165756440Y-96468468D01*
X165648206Y-96630451D01*
X165510451Y-96768206D01*
X165348468Y-96876440D01*
X165168481Y-96950993D01*
X164977408Y-96989000D01*
X164782592Y-96989000D01*
X164591519Y-96950993D01*
X164411532Y-96876440D01*
X164249549Y-96768206D01*
X164111794Y-96630451D01*
X164003560Y-96468468D01*
X163929007Y-96288481D01*
X163891000Y-96097408D01*
X163891000Y-95902592D01*
X163929007Y-95711519D01*
X164003560Y-95531532D01*
X164111794Y-95369549D01*
X164249549Y-95231794D01*
X164411532Y-95123560D01*
X164591519Y-95049007D01*
X164782592Y-95011000D01*
X164977408Y-95011000D01*
X165168481Y-95049007D01*
X165168481Y-95049007D01*
G37*
G36*
X156868481Y-95049007D02*
X157048468Y-95123560D01*
X157210451Y-95231794D01*
X157348206Y-95369549D01*
X157456440Y-95531532D01*
X157530993Y-95711519D01*
X157569000Y-95902592D01*
X157569000Y-96097408D01*
X157530993Y-96288481D01*
X157456440Y-96468468D01*
X157348206Y-96630451D01*
X157210451Y-96768206D01*
X157048468Y-96876440D01*
X156868481Y-96950993D01*
X156677408Y-96989000D01*
X156482592Y-96989000D01*
X156291519Y-96950993D01*
X156111532Y-96876440D01*
X155949549Y-96768206D01*
X155811794Y-96630451D01*
X155703560Y-96468468D01*
X155629007Y-96288481D01*
X155591000Y-96097408D01*
X155591000Y-95902592D01*
X155629007Y-95711519D01*
X155703560Y-95531532D01*
X155811794Y-95369549D01*
X155949549Y-95231794D01*
X156111532Y-95123560D01*
X156291519Y-95049007D01*
X156482592Y-95011000D01*
X156677408Y-95011000D01*
X156868481Y-95049007D01*
X156868481Y-95049007D01*
G37*
G36*
X154175770Y-94655372D02*
X154291689Y-94678429D01*
X154473678Y-94753811D01*
X154637463Y-94863249D01*
X154776751Y-95002537D01*
X154886189Y-95166322D01*
X154961571Y-95348311D01*
X154984628Y-95464230D01*
X154998016Y-95531532D01*
X155000000Y-95541509D01*
X155000000Y-95738491D01*
X154961571Y-95931689D01*
X154886189Y-96113678D01*
X154776751Y-96277463D01*
X154637463Y-96416751D01*
X154473678Y-96526189D01*
X154291689Y-96601571D01*
X154175770Y-96624628D01*
X154098493Y-96640000D01*
X153901507Y-96640000D01*
X153824230Y-96624628D01*
X153708311Y-96601571D01*
X153526322Y-96526189D01*
X153362537Y-96416751D01*
X153223249Y-96277463D01*
X153121142Y-96124649D01*
X153105603Y-96105715D01*
X153086661Y-96090170D01*
X153065050Y-96078619D01*
X153041601Y-96071506D01*
X153017215Y-96069104D01*
X152992828Y-96071506D01*
X152969379Y-96078619D01*
X152947769Y-96090170D01*
X152928826Y-96105716D01*
X152913281Y-96124658D01*
X152901730Y-96146269D01*
X152894617Y-96169717D01*
X152870993Y-96288481D01*
X152796440Y-96468468D01*
X152688206Y-96630451D01*
X152550451Y-96768206D01*
X152388468Y-96876440D01*
X152208481Y-96950993D01*
X152017408Y-96989000D01*
X151822592Y-96989000D01*
X151631519Y-96950993D01*
X151451532Y-96876440D01*
X151289549Y-96768206D01*
X151151794Y-96630451D01*
X151043560Y-96468468D01*
X150969007Y-96288481D01*
X150931000Y-96097408D01*
X150931000Y-95902592D01*
X150969007Y-95711519D01*
X151043560Y-95531532D01*
X151151794Y-95369549D01*
X151289549Y-95231794D01*
X151451532Y-95123560D01*
X151631519Y-95049007D01*
X151822592Y-95011000D01*
X152017408Y-95011000D01*
X152208481Y-95049007D01*
X152388468Y-95123560D01*
X152550451Y-95231794D01*
X152688206Y-95369549D01*
X152787175Y-95517665D01*
X152802720Y-95536607D01*
X152821662Y-95552152D01*
X152843273Y-95563703D01*
X152866722Y-95570816D01*
X152891109Y-95573218D01*
X152915495Y-95570816D01*
X152938944Y-95563703D01*
X152960555Y-95552151D01*
X152979497Y-95536606D01*
X152995042Y-95517664D01*
X153006593Y-95496053D01*
X153013706Y-95472604D01*
X153038429Y-95348311D01*
X153113811Y-95166322D01*
X153223249Y-95002537D01*
X153362537Y-94863249D01*
X153526322Y-94753811D01*
X153708311Y-94678429D01*
X153824230Y-94655372D01*
X153901507Y-94640000D01*
X154098493Y-94640000D01*
X154175770Y-94655372D01*
X154175770Y-94655372D01*
G37*
G36*
X127675770Y-94655372D02*
X127791689Y-94678429D01*
X127973678Y-94753811D01*
X128137463Y-94863249D01*
X128276751Y-95002537D01*
X128386189Y-95166322D01*
X128461571Y-95348311D01*
X128484628Y-95464230D01*
X128498016Y-95531532D01*
X128500000Y-95541509D01*
X128500000Y-95738491D01*
X128461571Y-95931689D01*
X128386189Y-96113678D01*
X128276751Y-96277463D01*
X128137463Y-96416751D01*
X127973678Y-96526189D01*
X127791689Y-96601571D01*
X127675770Y-96624628D01*
X127598493Y-96640000D01*
X127401507Y-96640000D01*
X127324230Y-96624628D01*
X127208311Y-96601571D01*
X127026322Y-96526189D01*
X126862537Y-96416751D01*
X126723249Y-96277463D01*
X126621142Y-96124649D01*
X126605603Y-96105715D01*
X126586661Y-96090170D01*
X126565050Y-96078619D01*
X126541601Y-96071506D01*
X126517215Y-96069104D01*
X126492828Y-96071506D01*
X126469379Y-96078619D01*
X126447769Y-96090170D01*
X126428826Y-96105716D01*
X126413281Y-96124658D01*
X126401730Y-96146269D01*
X126394617Y-96169717D01*
X126370993Y-96288481D01*
X126296440Y-96468468D01*
X126188206Y-96630451D01*
X126050451Y-96768206D01*
X125888468Y-96876440D01*
X125708481Y-96950993D01*
X125517408Y-96989000D01*
X125322592Y-96989000D01*
X125131519Y-96950993D01*
X124951532Y-96876440D01*
X124789549Y-96768206D01*
X124651794Y-96630451D01*
X124543560Y-96468468D01*
X124469007Y-96288481D01*
X124431000Y-96097408D01*
X124431000Y-95902592D01*
X124469007Y-95711519D01*
X124543560Y-95531532D01*
X124651794Y-95369549D01*
X124789549Y-95231794D01*
X124951532Y-95123560D01*
X125131519Y-95049007D01*
X125322592Y-95011000D01*
X125517408Y-95011000D01*
X125708481Y-95049007D01*
X125888468Y-95123560D01*
X126050451Y-95231794D01*
X126188206Y-95369549D01*
X126287175Y-95517665D01*
X126302720Y-95536607D01*
X126321662Y-95552152D01*
X126343273Y-95563703D01*
X126366722Y-95570816D01*
X126391109Y-95573218D01*
X126415495Y-95570816D01*
X126438944Y-95563703D01*
X126460555Y-95552151D01*
X126479497Y-95536606D01*
X126495042Y-95517664D01*
X126506593Y-95496053D01*
X126513706Y-95472604D01*
X126538429Y-95348311D01*
X126613811Y-95166322D01*
X126723249Y-95002537D01*
X126862537Y-94863249D01*
X127026322Y-94753811D01*
X127208311Y-94678429D01*
X127324230Y-94655372D01*
X127401507Y-94640000D01*
X127598493Y-94640000D01*
X127675770Y-94655372D01*
X127675770Y-94655372D01*
G37*
G36*
X143908481Y-95049007D02*
X144088468Y-95123560D01*
X144250451Y-95231794D01*
X144388206Y-95369549D01*
X144496440Y-95531532D01*
X144570993Y-95711519D01*
X144609000Y-95902592D01*
X144609000Y-96097408D01*
X144570993Y-96288481D01*
X144496440Y-96468468D01*
X144388206Y-96630451D01*
X144250451Y-96768206D01*
X144088468Y-96876440D01*
X143908481Y-96950993D01*
X143717408Y-96989000D01*
X143522592Y-96989000D01*
X143331519Y-96950993D01*
X143151532Y-96876440D01*
X142989549Y-96768206D01*
X142851794Y-96630451D01*
X142743560Y-96468468D01*
X142669007Y-96288481D01*
X142631000Y-96097408D01*
X142631000Y-95902592D01*
X142669007Y-95711519D01*
X142743560Y-95531532D01*
X142851794Y-95369549D01*
X142989549Y-95231794D01*
X143151532Y-95123560D01*
X143331519Y-95049007D01*
X143522592Y-95011000D01*
X143717408Y-95011000D01*
X143908481Y-95049007D01*
X143908481Y-95049007D01*
G37*
G36*
X138668481Y-95049007D02*
X138848468Y-95123560D01*
X139010451Y-95231794D01*
X139148206Y-95369549D01*
X139256440Y-95531532D01*
X139330993Y-95711519D01*
X139369000Y-95902592D01*
X139369000Y-96097408D01*
X139330993Y-96288481D01*
X139256440Y-96468468D01*
X139148206Y-96630451D01*
X139010451Y-96768206D01*
X138848468Y-96876440D01*
X138668481Y-96950993D01*
X138477408Y-96989000D01*
X138282592Y-96989000D01*
X138091519Y-96950993D01*
X137911532Y-96876440D01*
X137749549Y-96768206D01*
X137611794Y-96630451D01*
X137503560Y-96468468D01*
X137429007Y-96288481D01*
X137391000Y-96097408D01*
X137391000Y-95902592D01*
X137429007Y-95711519D01*
X137503560Y-95531532D01*
X137611794Y-95369549D01*
X137749549Y-95231794D01*
X137911532Y-95123560D01*
X138091519Y-95049007D01*
X138282592Y-95011000D01*
X138477408Y-95011000D01*
X138668481Y-95049007D01*
X138668481Y-95049007D01*
G37*
G36*
X197558481Y-95049007D02*
X197738468Y-95123560D01*
X197900451Y-95231794D01*
X198038206Y-95369549D01*
X198146440Y-95531532D01*
X198220993Y-95711519D01*
X198259000Y-95902592D01*
X198259000Y-96097408D01*
X198220993Y-96288481D01*
X198146440Y-96468468D01*
X198038206Y-96630451D01*
X197900451Y-96768206D01*
X197738468Y-96876440D01*
X197558481Y-96950993D01*
X197367408Y-96989000D01*
X197172592Y-96989000D01*
X196981519Y-96950993D01*
X196801532Y-96876440D01*
X196639549Y-96768206D01*
X196501794Y-96630451D01*
X196393560Y-96468468D01*
X196319007Y-96288481D01*
X196281000Y-96097408D01*
X196281000Y-95902592D01*
X196319007Y-95711519D01*
X196393560Y-95531532D01*
X196501794Y-95369549D01*
X196639549Y-95231794D01*
X196801532Y-95123560D01*
X196981519Y-95049007D01*
X197172592Y-95011000D01*
X197367408Y-95011000D01*
X197558481Y-95049007D01*
X197558481Y-95049007D01*
G37*
G36*
X130368481Y-95049007D02*
X130548468Y-95123560D01*
X130710451Y-95231794D01*
X130848206Y-95369549D01*
X130956440Y-95531532D01*
X131030993Y-95711519D01*
X131069000Y-95902592D01*
X131069000Y-96097408D01*
X131030993Y-96288481D01*
X130956440Y-96468468D01*
X130848206Y-96630451D01*
X130710451Y-96768206D01*
X130548468Y-96876440D01*
X130368481Y-96950993D01*
X130177408Y-96989000D01*
X129982592Y-96989000D01*
X129791519Y-96950993D01*
X129611532Y-96876440D01*
X129449549Y-96768206D01*
X129311794Y-96630451D01*
X129203560Y-96468468D01*
X129129007Y-96288481D01*
X129091000Y-96097408D01*
X129091000Y-95902592D01*
X129129007Y-95711519D01*
X129203560Y-95531532D01*
X129311794Y-95369549D01*
X129449549Y-95231794D01*
X129611532Y-95123560D01*
X129791519Y-95049007D01*
X129982592Y-95011000D01*
X130177408Y-95011000D01*
X130368481Y-95049007D01*
X130368481Y-95049007D01*
G37*
G36*
X101175770Y-94655372D02*
X101291689Y-94678429D01*
X101473678Y-94753811D01*
X101637463Y-94863249D01*
X101776751Y-95002537D01*
X101886189Y-95166322D01*
X101961571Y-95348311D01*
X101984628Y-95464230D01*
X101998016Y-95531532D01*
X102000000Y-95541509D01*
X102000000Y-95738491D01*
X101961571Y-95931689D01*
X101886189Y-96113678D01*
X101776751Y-96277463D01*
X101637463Y-96416751D01*
X101473678Y-96526189D01*
X101291689Y-96601571D01*
X101175770Y-96624628D01*
X101098493Y-96640000D01*
X100901507Y-96640000D01*
X100824230Y-96624628D01*
X100708311Y-96601571D01*
X100526322Y-96526189D01*
X100362537Y-96416751D01*
X100223249Y-96277463D01*
X100113811Y-96113678D01*
X100038429Y-95931689D01*
X100000000Y-95738491D01*
X100000000Y-95541509D01*
X100001985Y-95531532D01*
X100015372Y-95464230D01*
X100038429Y-95348311D01*
X100113811Y-95166322D01*
X100223249Y-95002537D01*
X100362537Y-94863249D01*
X100526322Y-94753811D01*
X100708311Y-94678429D01*
X100824230Y-94655372D01*
X100901507Y-94640000D01*
X101098493Y-94640000D01*
X101175770Y-94655372D01*
X101175770Y-94655372D01*
G37*
G36*
X155000000Y-94100000D02*
X153000000Y-94100000D01*
X153000000Y-92100000D01*
X155000000Y-92100000D01*
X155000000Y-94100000D01*
X155000000Y-94100000D01*
G37*
G36*
X128500000Y-94100000D02*
X126500000Y-94100000D01*
X126500000Y-92100000D01*
X128500000Y-92100000D01*
X128500000Y-94100000D01*
X128500000Y-94100000D01*
G37*
G36*
X102000000Y-94100000D02*
X100000000Y-94100000D01*
X100000000Y-92100000D01*
X102000000Y-92100000D01*
X102000000Y-94100000D01*
X102000000Y-94100000D01*
G37*
M02*
