M48
INCH,TZ
T1C0.0157
T2C0.0394
T3C0.0400
T4C0.0433
T5C0.0591
%
G90
G05
T1
X45827Y-42047
X47244Y-39843
X47913Y-40551
X48150Y-36654
X60472Y-42047
X62598Y-40551
X67087Y-40157
X69075Y-40020
X70197Y-42047
X72075Y-41125
X72244Y-37520
X73819Y-40551
X76555Y-41673
T2
X59764Y-44252
X59764Y-45252
X49331Y-44252
X49331Y-45252
X60630Y-36654
X60630Y-37654
X50197Y-36654
X50197Y-37654
X39764Y-36654
X39764Y-37654
X70197Y-44252
X70197Y-45252
T3
X39709Y-41142
X39709Y-42142
X39709Y-43142
X39709Y-44142
X39709Y-45142
X40709Y-41142
X40709Y-42142
X40709Y-43142
X40709Y-44142
X40709Y-45142
T4
X68701Y-43701
X68701Y-44685
X68701Y-45669
X56543Y-37795
X59811Y-37795
X47835Y-43701
X47835Y-44685
X47835Y-45669
X66976Y-37795
X70244Y-37795
X40780Y-37795
X44047Y-37795
X77539Y-43701
X77539Y-44685
X77539Y-45669
X51213Y-37795
X54480Y-37795
X58268Y-43701
X58268Y-44685
X58268Y-45669
X61646Y-37795
X64913Y-37795
X74398Y-37795
X77665Y-37795
X46110Y-37795
X49378Y-37795
T5
X45079Y-37795
X55512Y-37795
X73366Y-37795
X65945Y-37795
X45079Y-37795
X65945Y-37795
X55512Y-37795
T5
X55374Y-42874G85X55650Y-42874
G05
X55374Y-46496G85X55650Y-46496
G05
X65807Y-42874G85X66083Y-42874
G05
X65807Y-46496G85X66083Y-46496
G05
X44941Y-42874G85X45217Y-42874
G05
X44941Y-46496G85X45217Y-46496
G05
X74646Y-46496G85X74921Y-46496
G05
X74646Y-42874G85X74921Y-42874
G05
T0
M30
